<svg width="22" height="29" viewBox="0 0 22 29" fill="none" xmlns="http://www.w3.org/2000/svg">
<g id="Group">
<path id="Vector" d="M17.6811 13.5123C16.3281 13.5123 15.2307 12.4203 15.2307 11.0726C15.2308 10.4252 15.489 9.80444 15.9485 9.34671C16.408 8.88897 17.0312 8.63178 17.6811 8.6317C18.331 8.63178 18.9542 8.88897 19.4137 9.34671C19.8732 9.80444 20.1314 10.4252 20.1315 11.0726C20.1315 12.4203 19.0338 13.5123 17.6811 13.5123ZM17.6811 6.96562C15.4047 6.96562 13.559 8.80414 13.559 11.0717C13.559 13.339 15.4047 15.1775 17.6811 15.1775C19.9572 15.1775 21.8032 13.339 21.8032 11.0714C21.8032 8.80414 19.9572 6.96533 17.6811 6.96533M3.93574 8.69947H0.775849V7.0801H6.32911V8.18649L4.42843 10.1366C5.57358 10.2502 6.39829 11.1971 6.39829 12.4293C6.39829 14.0377 5.16137 15.1784 3.44393 15.1784C1.85298 15.1784 0.650507 14.1522 0.546875 12.7032H2.24174C2.33322 13.1484 2.74543 13.5357 3.44393 13.5357C4.14243 13.5357 4.6574 13.057 4.6574 12.3837C4.6574 11.4255 3.55798 11.0948 2.40153 11.4255V10.3425L3.93574 8.69975V8.69947ZM11.183 12.3716C11.183 11.6871 10.6446 11.1628 9.94608 11.1628C9.24787 11.1628 8.7439 11.6871 8.7439 12.3716C8.7439 13.0561 9.28232 13.5691 9.95737 13.5691C10.6321 13.5691 11.1818 13.0449 11.1818 12.3716M12.8313 12.3828C12.8313 13.9111 11.526 15.1775 9.95737 15.1775C8.38842 15.1775 7.08348 13.9108 7.08348 12.3828C7.08348 11.8583 7.289 11.1395 7.72466 10.4437L9.81987 7.07923H11.755L10.0601 9.73695C10.1285 9.72599 10.1976 9.72599 10.2657 9.72599C11.7318 9.72599 12.8304 10.8555 12.8304 12.3837M21.688 17.6801L17.0162 20.9313H21.688V22.6187H13.6731V21.2052L18.3449 17.9316H13.6731V16.2433H21.688V17.6801ZM13.6731 23.9419V28.8349H15.2987V25.6293H16.9939V28.4811H18.6196V25.6293H20.062V28.8349H21.688V23.9419H13.6731Z" fill="#1B1C1E"/>
<path id="Vector_2" d="M0.911263 1.46826L1.34489 4.29063H1.41726L1.9881 1.46826H3.24558L3.81642 4.29063H3.88879L4.32242 1.46826H5.23252L4.52505 5.03976H3.22416L2.65303 2.21768H2.58066L2.00953 5.03976H0.708631L0 1.46826H0.911263Z" fill="#FD7740"/>
<path id="Vector_3" d="M8.07261 2.90149C8.02166 2.43379 7.71829 2.14602 7.24905 2.14602C6.73611 2.14602 6.45387 2.44821 6.39598 2.90149H8.07261V2.90149ZM7.25629 1.36805C8.29666 1.36805 8.99805 2.09527 8.99805 3.19619V3.53529H6.38845C6.42405 3.99549 6.79371 4.36372 7.29971 4.36372C7.80571 4.36372 8.05813 4.08286 8.20982 3.81585L8.93958 4.26222C8.73695 4.53615 8.31055 5.14053 7.29855 5.14053C6.20029 5.14053 5.45605 4.3343 5.45605 3.22473C5.45605 2.11545 6.2 1.36719 7.256 1.36719M10.8692 4.44993C11.4473 4.44993 11.8158 4.07565 11.8158 3.54221V3.44907L10.7896 3.60709C10.4639 3.65784 10.2839 3.80172 10.2839 4.03211C10.2839 4.26222 10.4639 4.44993 10.8692 4.44993ZM11.1584 1.36805C12.098 1.36805 12.7117 1.89343 12.7117 2.78673V5.03989H11.8306V4.57969H11.7582C11.6421 4.78845 11.3602 5.14139 10.6596 5.14139C9.92263 5.14139 9.37292 4.7602 9.37292 4.08286C9.37292 3.40524 9.93682 3.09613 10.6883 2.98137L11.8161 2.80922V2.72272C11.8161 2.37699 11.6134 2.08921 11.1219 2.08921C10.6301 2.08921 10.3707 2.37699 10.283 2.78068L9.40882 2.48569C9.654 1.89544 10.2179 1.36921 11.1575 1.36921" fill="#FD7740"/>
<path id="Vector_4" d="M13.4785 0H14.3886V5.03977H13.4785V0ZM14.8225 1.46828H15.7182V0.35986H16.6294V1.46828H17.6128V2.20241H16.6294V4.0888C16.6294 4.23297 16.7018 4.30477 16.8321 4.30477H17.5262V5.03891H16.5145C16.0372 5.03891 15.7196 4.72259 15.7196 4.23268V2.20299H14.8237V1.46799H14.8228L14.8225 1.46828ZM19.1296 0V1.97231H19.202C19.3395 1.69838 19.6356 1.41061 20.2933 1.41061C21.1322 1.41061 21.688 2.02191 21.688 2.90829V5.03977H20.7767V2.95212C20.7767 2.41147 20.5017 2.1459 20.0102 2.1459C19.4533 2.1459 19.1288 2.53402 19.1288 3.19722V5.03977H18.2175V0H19.1296Z" fill="#FD7740"/>
</g>
</svg>
